<?xml version="1.0" encoding="utf-8"?>
<!-- Generator: Adobe Illustrator 27.3.1, SVG Export Plug-In . SVG Version: 6.00 Build 0)  -->
<svg version="1.1" id="Layer_1" xmlns="http://www.w3.org/2000/svg" xmlns:xlink="http://www.w3.org/1999/xlink" x="0px" y="0px"
	 viewBox="0 0 1920 1920" style="enable-background:new 0 0 1920 1920;" xml:space="preserve">
<style type="text/css">
	.st0{display:none;fill:#DC4826;}
	.st1{display:none;fill:#F68C1F;}
	.st2{display:none;fill:#654A9E;}
	.st3{display:none;fill:#018846;}
	.st4{fill:#306AB3;}
</style>
<path class="st0" d="M420.1,1259.8c8.6-15.6,17.6-31.7,27.2-47.6c12.7-21.4,27.6-40.9,42.8-60.9c11.1-14.2,21.9-27.7,33.6-41.6
	c13.8-16,27.2-31.3,41.5-47c22.4-24.2,45.1-47.4,68.3-70.3c24.6-23.8,50.1-46.3,76.8-68c24.1-20,49.1-38.7,75.1-56
	c22.3-15.3,45.9-29.9,69.4-42.9c35.6-20.1,72.7-38.6,110.1-56.1c41.6-19.2,82.9-37.8,126.2-52.9c23.3-8.2,46.9-15.5,70.7-21.8
	c58-15,116.4-24.9,175.6-31.9c24.3-2.8,49.3-5.2,73.9-7c12.4-0.4,24.9-0.8,37-0.6c7.9,0.3,15.6,1.3,23.1,3.9c11.3,3,23,7,33.2,13.5
	c9.3,5.2,17,11.9,24,19.8c7.6,8.3,11,18.3,11.1,29.8c0.2,9.9-1.8,19.4-4.8,29.1c-1.8,4.7-4.2,9.1-7.3,13.1
	c-6.4,8.6-14.4,15.6-22.6,21.6c-10.2,8.2-20.7,15.4-31.2,22.5c-21,14.4-41.4,29.1-60.9,45.2c-18.5,15.8-37,31.5-54.9,47.6
	c-26.5,24.3-51.8,49.4-75.9,75.1c-19.7,20.8-37.8,41.7-55.6,63.5c-10.1,12.3-18.9,25.3-28.4,38c-12.9,17.3-24.5,35.3-35.7,52.6
	c-2.8,5-5.8,9-8.6,14c-2.4,4.4-4.8,8.7-7.9,12.7c-11.2,15.8-19.9,32.9-29.2,49.7c-13.4,22.7-25.6,46-38.3,69.1
	c-4.5,8.1-8,15.9-11.9,24.3c-10.2,22.8-18.9,45.7-26.9,68.9c-5.4,14.1-9.8,27.9-15.2,42c-6.2,18.5-12.8,37.7-19,56.2
	c-13.1,38.3-20.8,77.2-26.1,117.4c-2.3,15.8-4.3,32.6-6.5,48.5c-0.9,6-2.1,12.7-4,18.9c-1.1,3.5-1.9,7.9-3.7,11
	c-5.2,10.9-14.6,14.7-25.2,8.8c-6.2-3.5-12.4-8.5-17.6-13.8c-8.9-9-17.1-17.6-24.6-27.5c-23.5-31-42.1-64.9-55.2-101.5
	c-13.4-37.5-21.9-76.4-27.8-115.6c-5.2-34.6-7.2-69.1-10.2-103.3c-1.3-15.3-1.9-30.3-4.7-45.8c-1-5.5-2.1-10.9-3.5-15.8
	c0.1-1.6-0.8-2.9-1.7-4.2c-2.9-6.5-8.2-8.6-14.4-6.4c-8.7,2.5-16.5,6.3-24.1,11.1c-12.4,7.7-25.2,16.1-37,24.2
	c-18.4,12.6-35.8,24.9-52.9,38.2c-35.5,25.9-67.4,55.4-95.6,88.6c-16.1,18.7-31,38.2-46.2,58.2c-12.5,16.7-24.4,33.7-36.3,50.7
	c-4.1,5.9-8.2,11.8-11.3,17.4c-9.3,16.8-21.1,32.2-30.5,49c-7.6,13.7-17.7,26-29.6,37.3c-5,4.6-10.6,8.8-17.1,11.7
	c-16.6,7.9-34.1,7.1-50.3-0.3c-17.5-8.1-29.3-22-35.5-40.1c-4.6-12.3-5.3-25.7-4.7-38.4c1-16.5,3.3-32.4,7.5-48.7
	c6.1-24.3,14.8-47.1,23.8-70.7c9.7-24.8,20.2-48.2,31.1-72.2c3.5-7.8,7.7-15.3,10.8-22.5C392.2,1308.6,406.3,1284.7,420.1,1259.8z"
	/>
<path class="st0" d="M528.3,856.7c5.2-9.3,15.5-26.4,25.8-43.5c8.2-13.3,16.8-27.3,25.6-40.3c10.2-15.5,20.8-31.6,31-47.1
	c7.9-12.7,17.3-25.4,25.8-37.8c10.2-13.9,20-27.2,29.8-40.5c9.1-12,19.2-24.3,28.3-36.4c17.9-23.4,36.1-45.9,54.9-68
	c18.8-22.1,37.2-43.6,56.7-65.4c26.8-30.7,55.8-59.4,85.9-85.8c27.5-24.6,54.7-48.6,83.7-71.6c27.4-21.4,55.6-41.6,85.1-59.4
	c9.8-5.9,19.9-10.9,30.3-14.9c13.6-5.5,28-6.4,42.2-2.6c18.3,5.2,35.4,21.3,38,43.1c0.2,2.6,0.4,5.1,0,7.3c-1,9.2-3.7,18.3-7.5,26.8
	c-8.1,19.1-20,36.1-31.9,53.1c-19.7,28.1-38.1,57-53.5,87.5c-12.2,25-24.5,49.9-34.8,75.9c-8.2,20.7-15.2,42-20.6,63.5
	c-3.8,14.2-6.6,28.1-9.5,42c-2.3,10.1-6.9,19.8-11.1,28.8c-0.7,1.2-1.4,2.5-3.3,3c-11.4,5.9-22.5,12.7-34.5,16.7
	c-28.1,9.6-56.3,19.2-83.2,31.1c-28.9,12.5-57.2,26.8-84.7,42.5c-51.3,29.3-99.2,62.9-145.7,99.8c-21.8,17.2-42.9,34.8-63.2,53.7
	c-19.6,17.6-37.6,36.9-55.6,56.2c-6.4,7.1-13.7,14.4-20.7,21.1c-5.7,5.8-12,11.3-19.5,16c-3.9,2.7-7.8,3.8-12.3,4.6
	c-3.5,0.5-6.6-1.2-8.7-4.8c-2.1-3.6-3.2-7.5-2.7-11.3c-0.3-6.7,0.5-12.7,2.4-19c3.5-13.6,8.8-26.1,14.4-39.2
	C495.2,914.8,509.9,889.7,528.3,856.7z"/>
<path class="st0" d="M1213.5,589.9c-70.3-39-87.9-126.1-53.7-187.7c34.9-62.8,118.7-92.1,188-52.7s87,124.8,52.8,186.4
	C1366.7,598.5,1283.9,629,1213.5,589.9z"/>
<path class="st1" d="M946.1,433.5c3.4,6.2,7.2,13.1,10.6,19.3c20.8,37.9,47.1,71.2,78.6,100.8c16.1,14.6,33.7,27.6,52.2,39.3
	c32.8,20,66.7,36.2,103.3,48.5c25.1,8.9,51,14.9,77.5,19c21,3,42.4,5.1,63.3,4.9c28.6,0.5,57-3.7,84.9-10.2
	c15.7-3.8,31.7-8.5,46.8-13.5c14.1-5.3,27.2-10.9,40.2-18c11.2-6.1,22.4-12.3,33.6-18.4c9.9-5.4,20.9-9,31.9-11
	c17.6-3.2,34.2-1,50.6,5.4c17.4,6.6,29.9,19.2,37.5,36c4.5,9.7,7.4,19.4,8.1,29.5c2.9,25.9-12.9,53.1-34,64.7
	c-11.2,6.1-23.1,11-35.6,14.7c-22.3,6.5-44.1,15.3-64.4,25.6c-10.9,5.2-20.9,10.6-31.8,15.8c-24.3,11.7-47,24.9-69.9,39.1
	c-14.2,9.4-27.9,18.5-42.1,27.9c-9.9,7-19.1,13.7-29,20.8c-6.8,5.3-14.2,11-21.3,15.7c-29.9,22.1-58.5,46.6-85.8,72.1
	c-38.9,36.7-73.6,76.7-105.9,119.4c-30.5,40.2-58.4,82.1-85.4,124.4c-14.7,23.4-28.7,46.4-41.8,69.8c-24.6,45-45.4,91.2-60.7,139.9
	c-16.2,50.1-28.9,100.7-40.6,151.6c-4,19.2-7.7,39-10.2,58.1c-1,7-2,14-3.4,20.4c-1.1,5.4-3.4,10-7.7,13.9c-8,7.6-18.7,8.6-26.6,1.6
	c-3.3-3-6.6-6.1-9.2-9.5c-8.3-10.8-17-22.2-22.9-34.3c-7.8-14.3-15.7-28.6-22.9-43.2c-5.8-12.2-11.7-24.3-16.6-36.2
	c-8.4-21.3-16.8-42.5-23.6-63.8c-7.6-24.1-13.6-48.3-18.9-72.9c-7.8-39.4-13.1-78.5-11.1-119.2c0.3-17.1,2.2-34.3,5.1-51.3
	c7-41.8,18.2-81.9,32.9-121.4c12.9-35.4,27.2-69.9,42.1-104.7c13.4-31.6,27.1-62.6,38.6-94.7c9.8-26.4,18.3-53.7,24.2-81.2
	c9.2-42.2,12.7-84.5,8.2-128.1c-2.6-26.9-8.6-52.6-18.1-77.3c-5.3-14.1-13.4-27.4-20.9-41.1c-12.9-22-29.5-42-45.8-61.4
	c-8.6-9.8-17.9-19.3-26.2-30.1c-6.4-8.6-11.1-17.3-14.4-27.7c-6.3-23.2-4.9-45.8,4.7-68.1c3.2-7.4,8.1-13.3,13.5-19.5
	c13.2-12.9,28.7-21.4,46-25.2c7.9-1.9,16.7-1.9,24.8,1c11.5,3.4,23.2,8.3,33.9,14.6c10.7,6.3,18.9,13.9,25.3,24.1
	c4,5.9,7.4,12.1,10.5,17.7C937.2,417.3,941.6,425.4,946.1,433.5z"/>
<path class="st1" d="M546.8,933.4c27.3-15,56.1-27.5,85.2-37.8c28.5-10,57.7-17.1,87.8-19.8c15.5-1.2,31.3-3.4,47.1-4
	c6.3-0.2,13,0.1,19.7,0.5c6.7,0.4,12.4,2.1,17.4,6.6c2.9,2.4,5.6,5.8,6.1,9.6c1.1,3.4,1.9,7.9,1.4,11.4c-0.4,6.7-1.7,13.1-4.4,18.6
	c-4.4,9.7-8.4,20-13.5,30c-20.3,41-40.7,82.1-61.7,123.5c-25.1,50.1-50.8,99-80.4,146.7c-18.8,30.5-38.6,60.8-58.8,90.4
	c-21.3,31.9-43.6,63.5-66.2,94.5c-31.7,42.4-63.8,84.2-98.8,123.6c-18.9,21.6-39.7,41.1-62.5,58.5c-11.7,9.6-23.7,18.7-37.1,26.8
	c-5,2.7-9.3,5.1-14.3,7.8c-1.9,1-4.7,1.8-6.9,2.2c-8.8,1.6-15.9-1-20.3-9.1c-3.4-6.2-7.2-13.1-9.3-19.9c-8.4-30.1-14.6-60.7-18.3-91
	c-3.6-28.7-5.3-56.9-4.2-85.8c0.9-17.5,2.5-35.3,5-52.8c2.9-24.2,8-48.8,13.4-72.8c11.7-52.5,32.3-101.8,59.8-147.5
	c19.1-31.5,40.5-61.8,64.8-89.7c20.7-24.2,43.9-46.7,69.2-67c18.5-15,37.6-28.7,58.8-40.3C533.2,942.5,540.3,937.8,546.8,933.4z"/>
<path class="st1" d="M1114.3,522.3c-38.8-69.3-12.6-158.8,57-196.9c66.5-36.4,155.7-16.6,196.8,55.4
	c38.7,67.7,17.7,157.6-55.3,198.4C1240.8,620.3,1152.5,591.9,1114.3,522.3z"/>
<path class="st1" d="M825.5,701.6c8.2,16.5,13.9,32.8,17.1,48.8c1.1,5,1,10.7,0.9,16.5c0.2,6.3-2.8,11.2-7.7,15.5
	c-1.5,1.6-4,3-6.2,3.4c-5.9,2.4-12.6,3.6-18.9,3.9c-7.3,0-14.9,0.9-22.2,0.8c-50.7,0.3-101.5,0.6-152.3-0.6c-12.4-0.5-24.8-1-37.2-3
	c-5.4-1.1-10.9-2.1-16-4.2c-8-2.9-12.4-9.4-13-17.9c-0.7-10.1,1.5-19.4,4-29.6c3.5-15.7,11.3-29.6,20.3-42.6
	c10.8-15.6,23.3-29.7,38.4-40.5c6.8-5.3,15.2-9.1,23.6-12.9c12.5-5.2,26-8.6,39.9-9.7c18.7-1.3,36.5,1.8,53.3,8.8
	c22.9,9.3,43.7,22.1,60.5,41.2C817.3,686.7,821.7,694.7,825.5,701.6z"/>
<path class="st1" d="M1605.9,503.5c-13.4,6.5-29.6,13.8-46.5,19.8c-14.7,5.6-30.1,10-44.8,14.1c-8.5,2.2-17.6,3.2-26.2,3.8
	c-4.8,0.2-9.8-0.3-14.4-2.6c-6.5-2.9-11.4-7.5-13.5-14.4c-2.6-9.1-3.5-18.3-3.9-27.8c0.2-18.7,2.1-37.5,4.9-56
	c2.9-16.9,5.7-33.8,8.6-50.8c1.9-8.3,3.8-16.6,6.1-24.3c1.6-7.4,5.2-14.2,9.4-19.7c2.1-3.6,5.8-5.6,9.9-5.4c4.8-0.2,8.9,0,13.1,1.7
	c5.2,2,10.6,4.7,16.1,7.3c18.5,10.1,35.4,21.8,52,34.5c13.1,10.6,26.2,21.2,38.6,32.2c5.9,4.9,10.9,11,17.1,16.5
	c5.6,5.8,9.4,12.7,13.1,19.5c3.5,7.8,2.8,15.4-1,23.2c-2.1,3.6-4.8,7.5-8.2,10.1C1627.7,491.6,1619.9,496.6,1605.9,503.5z"/>
<path class="st2" d="M969.5,461.3c3.5-5.9,7-11.7,10.5-17.6c9.7-16.3,22-31,35.2-44.4c11.8-12.4,23.8-23.8,37.2-34.4
	c32.5-26.5,68.8-44.6,110.1-51.8c16.5-2.5,32.5-2.7,49-0.9c17.8,2.7,34.7,8.3,51.2,16.3c13.8,6.4,24.6,16.4,33.7,27.9
	c9.3,12.6,12.7,26.1,9.5,41.8c-2.5,11.7-7.7,21.9-12.9,32c-5.2,10.2-12,20.2-17.2,30.4c-7,11.7-13.9,23.5-18.9,36.4
	c-1.2,2-1.9,3.3-2.4,5.6c-7.1,13.4-12.5,27-17.2,40.9c-4.1,9.9-7.2,19.5-10,30.2c-16.8,53.5-20.1,108-12.1,162.9
	c3.2,21.3,7.5,42.3,14.4,63.2c12.5,38.3,28.5,75.1,48.5,109.9c13,22.7,25.9,45.4,41.5,65.2c19,24.5,37.7,47.9,61.4,67.3
	c15.7,13.7,32.1,26.1,48.5,38.5c9.7,7.5,20.1,13.7,30.5,19.9c16.3,9.7,32.6,19.4,48.9,29c8.5,5,16.9,10.1,25.3,16.8
	c12.8,11.1,19.6,24.9,20.5,41.2c1.5,12.3-1.1,24.1-4.7,36c-1.8,6-4.6,12.2-7.1,17.8c-1.3,3.6-3.6,7.6-6.6,11.1
	c-18.2,26.2-42.6,43.5-74,50.4c-20,4-39.8,4.6-60,3.1c-20.6-2.5-40.6-7.4-59.9-13.5c-31.2-9.7-61.3-21.4-92.1-33.5
	c-6.3-2.8-12.5-5.7-18.4-9.1c-14.3-8.5-28-16.6-41.6-26.5c-16.2-11.4-32.6-23.8-47.6-37.1c-21.1-17.8-40.7-38.3-60.7-58.1
	c-13.3-13.2-25.6-26.7-37.5-40.8c-20.8-22.9-37.3-48.6-52.7-74.5c-9-15.9-17.7-32.6-25.7-48.8c-9.4-19.7-16.8-40-24.2-60.2
	c-6.5-18.8-11.2-37.5-16-56.2c-8-35.6-13.8-71.7-15.9-108.2c-1.6-38.9-0.5-77.9,6.1-117.2c4.4-28.2,10.2-55.7,18.6-83.3
	c7.9-25.3,17.9-49.3,31.4-72.2C967.6,464.5,968.8,462.6,969.5,461.3L969.5,461.3z"/>
<path class="st2" d="M163.2,1241.3c8.8-13.3,14.2-22.4,19.2-30.9c10.2-14.2,19.8-28.8,30-43c6.1-8.7,12.1-17.5,18.9-25.8
	c6.7-8.3,12.8-17.1,19.1-24.8c7.5-9.7,15-19.3,22.8-27.9c11.1-12.8,22.2-25.6,34.3-36.9c13.2-13.3,27.7-25.9,42.2-38.4
	c40.8-33.1,86.2-59,136-76.1c28.6-9.5,57.6-16.9,87.5-21.2c18.8-2,37.9-3,57.2-1.3c29.8,1.8,60,7.4,89,14.9
	c13.7,3.7,27.3,7.4,41.3,12.2c16.3,5.3,32.8,11.6,49,18.5c14.8,6.2,28.1,15,42.7,20.1c11.1,6.6,22.3,11.5,31.8,20.7
	c2.9,2.6,6.1,4.5,9.4,6.5c21.8,13.8,40.3,30.1,58.7,48.1c16.5,16.8,30.4,34.8,42.2,55.1c12.7,21.7,24.6,44.6,33.5,68.4
	c9.1,24.8,14.4,50,17,75.3c2.6,25.3,3.5,50.6,1,75.5c-2.5,29.4-8.6,57.5-19.4,84.6c-7.8,19.1-16.3,37.9-28.1,54.7
	c-8,12-16.9,22.6-26.9,33.4c-17.2,17.1-39,22.7-62.7,20.9c-6.8-0.5-11.6-4.2-15.3-9.9c-3.3-6.4-5.9-12.3-7.1-19.2
	c-2.4-9.3-5-19.7-8.1-29.5c-4.6-16-10.9-32.1-19.7-47c-4.5-8.8-10-17.4-15.1-26.6c-12.4-20.6-28.4-39.8-45.9-56.3
	c-7.3-7-15-13.3-23.1-19c-15.4-12.7-33.8-21.8-50.7-31.9c-7.8-4.6-17.1-8.4-25.3-12.4c-21.1-9-42.3-16.3-64.3-22.3
	c-22.6-6.4-45.5-9.4-68.6-10.7c-32.1-2.3-64.1-1.9-96.8-0.2c-29.4,1.9-59.1,4.6-88.4,9.2c-45.7,7.2-91,18.2-134.7,33.7
	c-15.7,5.7-31.8,12-47.5,17.6c-8,3.2-16.4,5.3-24.7,7.4c-5.6,2-11.7,1.9-17.4,1.1c-6.8-0.5-10.9-3.9-13.9-9.2
	c-2.1-3.9-2.1-8.3-1.5-12.3c1.1-6.4,2.3-12.7,5.4-18C153.6,1257.6,159.4,1247.8,163.2,1241.3z"/>
<path class="st2" d="M1589.5,841c-11,19.9-26.5,37.2-45.4,49.7c-22.9,16.4-48.8,25.7-75.8,28.2c-24.3,2.3-47.2-0.7-69.7-8.8
	c-10.3-3.5-20.8-8-30-13.4c-34.7-23.2-59.3-54.6-70.9-95.9c-8.3-30.5-7.2-60.7,1.8-90.6c5.8-18.6,13.9-36.7,27.9-51.3
	c24.3-30.5,55.6-49,93.9-57.1c26.2-5.6,52.6-4,77.9,3.9c14.3,4.1,26.7,11.5,39.7,19.2c17.6,10.5,31.2,24.7,43.6,40.9
	c8.6,12.2,15.2,24.9,20.6,39.6c13.6,38,12.6,75.3-1.1,113.1c-1.2,2-1.3,3.6-2.4,5.6C1595.7,830.5,1592.6,835.7,1589.5,841z"/>
<path class="st2" d="M706.7,856.2c-44.2-23.6-58.9-83.5-31.9-123c22-41.6,78.4-59.2,123.4-32.5c41.7,24.8,58.1,75.9,32.8,124.4
	C799.2,874.1,743.1,879.5,706.7,856.2z"/>
<path class="st3" d="M1080.5,1574.9c-23.6-6.8-46.5-15.5-68.7-24.8c-34.5-14.3-68.3-31.3-101.8-48.9c-28.4-15.4-55.7-32-82.6-49.9
	c-34.2-22.9-68.1-47.2-99.8-73.8c-47.8-39.2-92.5-81.2-133.1-127.8c-30.3-34.2-57.9-69.8-85.4-106.1c-24.4-31.8-47.1-64.5-69.5-97.9
	c-39.8-59.5-73.4-122.4-100.4-188.4c-11.9-29.6-22.7-60.4-32.2-90.9c-9.5-30.4-18.8-61.5-27.4-92.4c-4.8-18.9-9.6-37.7-13.5-57.1
	c-1.8-11.5-3.6-22.9-3-35.1c0.8-18,5.9-33.3,17.1-46.8c13.3-15.9,29-27.4,49.2-31.8c17.1-3.8,32.8-0.1,46.2,11.8
	c8.1,7.4,14.2,16.5,19.7,25.3c9.8,16.7,16.5,33.9,23.7,52c10,26.2,18.9,53.5,29.7,79.2c7.4,17.4,15.4,35,25.4,51
	c10.5,16.9,23.5,32.3,38.7,45.4c8.1,7.4,16.3,14.2,25.7,19.8c13,8.1,26.5,14.2,41.2,19.1c14.8,4.3,29.3,7,44.2,8.3
	c11.4,1.1,23.1,0.8,35-0.1c21.5-1.1,42.8-4.5,63.2-9.5c27.6-7.4,53.3-18.2,77-34.7c10.1-7.3,18.9-15,27.4-24.2
	c17-18.5,30.9-39.2,41.1-61.8c5.7-12.2,11.4-24.4,14.6-38.1c1.2-4,2.5-8.8,3.7-12.8c6.3-19.3,9.2-39.6,12.1-59.9
	c2.7-14.5,3.9-28.8,7.9-42.9c4.3-14.8,13.3-26.1,26.3-33.3c14.5-7.5,29.6-11.9,46.4-9.3c21.6,3.3,38.1,14.6,47.8,34.1
	c5.8,10.4,8.2,22,8.5,33.8c0.1,7.3,0.2,14.6-0.4,21.7c-1.4,9.8-2.9,20.3-4.3,30.1c-3.2,18.8-5.7,37.7-8.3,56.7
	c-3.9,28.8-5.6,57.4-7.9,85.9c-3.8,51.4-1,102.5,8.5,153.3c7.5,40,15.1,79.4,25.6,118.9c16.2,62.9,38,123.9,67.1,182.5
	c13.5,26.5,27.1,52.9,42.1,79.1c16,27.9,36.4,53.4,59.1,76c9,9.2,18.3,17.6,28.5,25c19.2,14.3,41,24.9,63.6,32.1
	c13.5,3.9,26.4,6.9,39.9,10.7c7.4,2.1,14.7,2,21.7,0.4c3.1-0.6,5.5-1.3,8.8-2.6c8.8-2.6,15.9-7.1,21.6-14.2
	c4.2-4.6,8.7-9.9,12.2-14.7c4.6-6,10.3-8,17.6-8.1s13.4,1.7,18.3,7.4c9.5,10,15.8,21.3,16.1,35.2c0.3,11.7-0.1,23.3-2.7,34.9
	c-2.2,10.3-6.7,20.7-12.3,30c-13.6,24.5-32.3,43.9-56.1,58.2c-34.2,20.1-70.7,32.9-109.4,38.5c-32.6,4.5-64.9,5.4-97.7,2.6
	c-25.1-1.4-50.1-5.6-75.6-10.8C1102.1,1581,1091.3,1578,1080.5,1574.9z"/>
<path class="st3" d="M1423.9,1315.6c-50.5-14.5-96.7-38.7-138.3-71.8c-14.9-11.6-29.6-23.8-43.4-36.5c-28.2-26.3-51.8-55.7-71.4-89
	c-8.8-14.9-15.7-31.5-22-47.8c-10-26.2-18.2-53.3-25.6-80.9c-8.8-35.3-13.2-70.8-13.6-107.4c0.2-5.8,0.4-11.5,1.5-17.8
	c0.5-4.2,2.8-7.2,4.4-10.4c2.5-3.7,8-5,11.8-3.2c5.2,2.2,9.5,4.9,13.5,9c5.8,5.3,12,11.5,17.6,17.4c21.6,23.7,45.2,45.8,69.8,66.7
	c17,14.4,32.5,29,49.5,43.4c16.8,15,34.9,28.2,53.2,40.8c36.5,25.1,72.6,49.3,110.7,71.1c31.3,17.7,63.7,34.3,95.5,50.7
	c19.7,10,40.3,19.6,61.1,28.5c9.7,4.2,18.7,8.3,28.7,11.9c22.3,8.6,44.6,17.2,67.1,25.1c16.4,6.2,33.5,10.3,50.3,15.2
	c4,1.2,8.1,2.3,12.8,3.7c1.3,0.4,2.7,0.8,3.8,1.8c7,3.5,10,10.9,7.7,19s-7.6,13.8-13.9,17.9c-6.5,4.7-13.4,8.5-20.1,11.7
	c-16.9,8.3-34.2,15-51.7,20.1c-40.9,13-83.3,21.3-126,25c-32,2.5-64.3,0.5-95.6-7C1448.5,1321.2,1436.2,1318.4,1423.9,1315.6z"/>
<path class="st3" d="M622.6,687.7c-71.9-18.5-116.5-96.8-94.5-168.5c16.6-68.1,91.9-117.2,169.4-94.9
	c73.4,21.1,114.6,98.5,94.3,169.2C769.3,671.6,688,708.7,622.6,687.7z"/>
<path class="st3" d="M473.6,305.4c4.4-10.4,8-20.3,12.1-29.3c10.9-25.3,25-48.9,38.2-72.1c4.5-8.2,10.6-16.6,17.6-23.4
	c1.1-1.2,3-2.8,4-3.9c4.9-4.4,10.9-4.9,16.6-1.8c5,2.9,9.8,6.5,13.7,10.5c9,9.2,17.7,19.6,25.6,30c10.6,14,19.6,28.2,28.6,42.5
	c6,9.7,11.7,20.1,17.5,30.5c3.2,6.7,5.7,13.3,8,20.5c1.1,3.9,1.4,7.7,1.8,11.5c0.2,9.5-4.2,17-11.5,22.2c-4.5,3.1-9.3,4.6-15,6.6
	c-9.6,3.1-18.9,4.8-28.6,5.6c-29.5,3.9-59,4.9-88.8,2.2c-8.5-1-17.4-2.8-25.5-5.1c-3.4-1-6.5-2.6-8.8-4.7c-4.6-4.2-7.7-8.8-8.2-14.7
	c0.1-2.9-0.5-6-0.4-8.9C471.4,315.7,473,310.3,473.6,305.4z"/>
<path class="st4" d="M1608.9,1341.5c-20,4.2-38.8,4-57.8,3.1c-37.8-1.1-75.9-3.5-113.8-8.1c-52.8-6.3-105.2-16.8-155.3-33.4
	c-24-8.2-47.5-17.1-69.9-27.7c-21.6-10.1-42.7-20.9-64.2-30.3c-13.2-6.3-27-12.4-41.1-16.4c-4.4-1.2-9.4-1.5-14.3-1.9
	c-2.1-0.2-5.6,3.3-5,5.9c0.6,2.7,0.5,5.5,1.7,8c2.4,7.9,7.2,14.5,12.1,21.1c7.7,10.2,15.4,20.4,23.8,30.5
	c9.5,11.9,20.1,22.9,30.1,34c13.8,15.9,27.4,31.1,41.9,46.9c19.1,21,40,41,60.7,60.3c18.1,16.4,36.8,32.6,55.5,48.9
	c16.2,14,33.4,26.4,51.3,38.6c10.6,7.5,20.6,15.2,29.5,24.4c16.9,17.3,22,38.5,18.5,61.5c-1.8,11.5-7.5,20.4-16.4,27.8
	c-7.7,6.5-16.5,11.1-26.5,13.2c-10.5,2.9-21.5,3.8-32.7,3.4c-17-1.3-34.2-3.9-50.3-7.5c-40.2-8.9-78.9-21-117.8-33.7
	c-24.7-8-49.5-16.7-73.4-27.7c-15.4-7.2-30.9-14.4-46.3-21.6c-38.3-19.8-75.1-42.7-110.8-66.5c-28.2-18.4-55.4-38.4-81.4-59.4
	c-28.6-23.2-55.3-47.5-81.1-74.1c-32.1-33.6-62.6-69-91.8-105.3c-23.5-29.2-45.9-59.2-66.5-91.1c-6.4-10.5-12.8-21-19.2-31.5
	c-3.5-6.9-7.1-13.8-8-21.3c-0.6-2.7,0.2-5.6,0.3-8.4c0.6-3.6,2.2-6,5.3-8.1c4.9-3.1,10.1-4.9,16.4-4.8c8.4,0.3,17,1.3,25.7,2.9
	c14.5,2.5,29.1,5.7,43.5,8.2c16.1,3.6,32.5,5.7,49.1,8.4c28.6,3.7,58,4.5,86.7,1.9c21.2-1.7,42.2-4.7,63.5-9.2
	c24.7-5.2,49.3-10.4,73.7-16.9c13.9-3.6,27.7-7.2,40.5-12.7c14-6.4,28.5-13.7,41.5-21.3c23.5-14,47-28,69.3-44.5
	c13.3-9.8,25-19.9,37.5-30.2c11.3-9.3,22.5-18.7,33.6-28.7c4.1-3.6,9.2-6.1,14.9-8.7c6.4-2.7,13.3-2.8,19.5,0.1
	c3.9,2,7.8,3.9,11.2,6.7c5.1,4.5,10.1,8.3,15.2,12.8c22.8,22.3,44.9,44.8,67.8,67.2c12.3,12,25.2,23.9,38.2,35.8
	c11.2,10.2,23.6,19.4,35.8,28c36.1,25.8,74.5,49.7,113.6,70c21.9,11.4,44.6,23.3,67,33.9c11.5,5.2,22.3,9.9,33.8,15.2
	c9.3,4.3,18.7,9.3,27.9,13.6c7,3.4,14.2,8.1,20.2,13.2c15.1,12.1,24.6,27.5,26.5,46.6c1.3,12.9-2.6,24.2-10.9,34.3
	c-8.5,9.4-18.9,15.8-30.7,19.7C1620.9,1339,1614.5,1341.7,1608.9,1341.5z"/>
<path class="st4" d="M338.2,570.6c-1.9-12.1-4.4-24.1-6.2-36.3c-2.7-19.6-5.5-39.2-6.9-59.1c-1.7-17.8-2-35.8-1.6-54
	c0.1-12.6,1.6-25.4,5.2-38c2.8-9.6,6.5-18.8,11.6-27.5c6.3-9.7,13.9-16.8,23.2-22.3c13.8-7.1,28.5-10.2,43.8-3.7
	c7.6,3.3,14.2,8.1,19,14.1c7.2,7.5,12.6,16.8,17.4,26.3c6.3,13.3,11.9,26.7,16.3,41.1c4.7,15.7,9.9,30.6,14.6,46.3
	c3.4,9.7,6.2,19.6,9.8,30c16.5,48.7,38.5,93.5,68.9,135.2c14.5,19.2,29.7,38.3,46,56.4c24.3,26.2,52.6,48.1,85.1,63.5
	c31.8,15.6,64.8,26.7,99.5,32.6c18.7,3,37.7,3.9,56.4,3.4c22-1.2,44.7-2.5,66.6-7.8c14.7-3.1,28.7-6,43.3-9.1
	c16.5-4.2,31.2-10.7,46.4-17.4c16.5-7.7,32.2-15.8,47.7-24.7c10.5-6.4,21.8-12.2,32.3-18.6c11.8-6.7,23.9-12,36.3-16
	c16.9-5.7,34-7.2,51.4-0.4c18.1,6.6,28,20.6,30.6,39.5c1.9,19.1-1.4,36.5-8.8,54.1c-8.1,17.7-20.1,33.5-33,48
	c-19.7,22.2-41,43.4-62.4,64c-9.3,8.9-18.5,17.8-27.8,26.7c-29.1,27-61.4,49.1-97.4,66.5c-18.3,8.7-36.8,16.8-56.1,24.4
	c-3.9,1.5-7.7,3-12.4,4c-2,0.4-4.7,1-6.5,2.1c-12.2,4.7-25.6,7.5-38.2,10.1c-8,1.7-16,3.4-23.6,3.6c-0.7,0.1-2,0.4-2.7,0.6
	c-26.3,4.1-52.9,3.5-79.7,1.5c-34-2.6-66.2-10.4-97.6-24c-20.7-8.9-41.1-19.9-60.3-31.8c-23.9-14.5-46.3-31.3-67.1-50.6
	c-17.3-15.9-33.3-32.7-48.2-50.4c-18.8-23.2-36.4-47.3-51.7-73.4c-16-26.6-30.2-54.2-41.7-82.4c-7.1-17.3-13.1-35.5-19.7-53.6
	c-1.5-3.9-2.4-7.9-3.3-12.5c-6.2-23-12-46.9-16.9-70.2C338.7,576,338.1,573.4,338.2,570.6L338.2,570.6z"/>
<path class="st4" d="M843.7,693.1c-73.8,16.3-147.1-31-162.6-104.3c-17.5-79.8,36.8-149.1,102-163.5
	c73.3-18.9,150.9,28.8,166.1,104.2C965.9,599.1,922.4,676.5,843.7,693.1z"/>
<path class="st4" d="M714.4,357c0.1,0.7,0.6,2.7-0.2,5.6c-1.5,5.9-2.6,11-5.7,15.8c-15.1,24.1-33.7,44.7-54.9,63.1
	c-7.2,5.7-14.3,11.4-23,13.2c-2.7,0.6-5.3,1.1-8.1,1c-6.6-1.4-12.5-2.9-18.8-6.5c-9.5-5.6-19.2-12-27.9-19.9
	c-13.6-11.8-26.7-24.3-37.4-38.8c-1.9-2.4-3.9-5.4-6-8.5c-7.2-11-6-21.7,0.2-32.1c2.6-4,5.3-8.1,7.9-12.1
	c16.2-22.2,34.8-42.8,56.3-59.9c14.8-12.2,26.6-12.6,42.7-2c22.6,14.7,43.1,32.7,60.7,53.4c1.9,2.4,3.9,5.4,5.8,7.8
	C710,342.6,712.7,349,714.4,357z"/>
</svg>
