<?xml version="1.0" encoding="utf-8"?>
<!-- Generator: Adobe Illustrator 27.3.1, SVG Export Plug-In . SVG Version: 6.00 Build 0)  -->
<svg version="1.1" id="Layer_1" xmlns="http://www.w3.org/2000/svg" xmlns:xlink="http://www.w3.org/1999/xlink" x="0px" y="0px"
	 viewBox="0 0 1920 1920" style="enable-background:new 0 0 1920 1920;" xml:space="preserve">
<style type="text/css">
	.st0{fill:#DC4826;}
</style>
<path class="st0" d="M420.1,1259.8c8.6-15.6,17.6-31.7,27.2-47.6c12.7-21.4,27.6-40.9,42.8-60.9c11.1-14.2,21.9-27.7,33.6-41.6
	c13.8-16,27.2-31.3,41.5-47c22.4-24.2,45.1-47.4,68.3-70.3c24.6-23.8,50.1-46.3,76.8-68c24.1-20,49.1-38.7,75.1-56
	c22.3-15.3,45.9-29.9,69.4-42.9c35.6-20.1,72.7-38.6,110.1-56.1c41.6-19.2,82.9-37.8,126.2-52.9c23.3-8.2,46.9-15.5,70.7-21.8
	c58-15,116.4-24.9,175.6-31.9c24.3-2.8,49.3-5.2,73.9-7c12.4-0.4,24.9-0.8,37-0.6c7.9,0.3,15.6,1.3,23.1,3.9c11.3,3,23,7,33.2,13.5
	c9.3,5.2,17,11.9,24,19.8c7.6,8.3,11,18.3,11.1,29.8c0.2,9.9-1.8,19.4-4.8,29.1c-1.8,4.7-4.2,9.1-7.3,13.1
	c-6.4,8.6-14.4,15.6-22.6,21.6c-10.2,8.2-20.7,15.4-31.2,22.5c-21,14.4-41.4,29.1-60.9,45.2c-18.5,15.8-37,31.5-54.9,47.6
	c-26.5,24.3-51.8,49.4-75.9,75.1c-19.7,20.8-37.8,41.7-55.6,63.5c-10.1,12.3-18.9,25.3-28.4,38c-12.9,17.3-24.5,35.3-35.7,52.6
	c-2.8,5-5.8,9-8.6,14c-2.4,4.4-4.8,8.7-7.9,12.7c-11.2,15.8-19.9,32.9-29.2,49.7c-13.4,22.7-25.6,46-38.3,69.1
	c-4.5,8.1-8,15.9-11.9,24.3c-10.2,22.8-18.9,45.7-26.9,68.9c-5.4,14.1-9.8,27.9-15.2,42c-6.2,18.5-12.8,37.7-19,56.2
	c-13.1,38.3-20.8,77.2-26.1,117.4c-2.3,15.8-4.3,32.6-6.5,48.5c-0.9,6-2.1,12.7-4,18.9c-1.1,3.5-1.9,7.9-3.7,11
	c-5.2,10.9-14.6,14.7-25.2,8.8c-6.2-3.5-12.4-8.5-17.6-13.8c-8.9-9-17.1-17.6-24.6-27.5c-23.5-31-42.1-64.9-55.2-101.5
	c-13.4-37.5-21.9-76.4-27.8-115.6c-5.2-34.6-7.2-69.1-10.2-103.3c-1.3-15.3-1.9-30.3-4.7-45.8c-1-5.5-2.1-10.9-3.5-15.8
	c0.1-1.6-0.8-2.9-1.7-4.2c-2.9-6.5-8.2-8.6-14.4-6.4c-8.7,2.5-16.5,6.3-24.1,11.1c-12.4,7.7-25.2,16.1-37,24.2
	c-18.4,12.6-35.8,24.9-52.9,38.2c-35.5,25.9-67.4,55.4-95.6,88.6c-16.1,18.7-31,38.2-46.2,58.2c-12.5,16.7-24.4,33.7-36.3,50.7
	c-4.1,5.9-8.2,11.8-11.3,17.4c-9.3,16.8-21.1,32.2-30.5,49c-7.6,13.7-17.7,26-29.6,37.3c-5,4.6-10.6,8.8-17.1,11.7
	c-16.6,7.9-34.1,7.1-50.3-0.3c-17.5-8.1-29.3-22-35.5-40.1c-4.6-12.3-5.3-25.7-4.7-38.4c1-16.5,3.3-32.4,7.5-48.7
	c6.1-24.3,14.8-47.1,23.8-70.7c9.7-24.8,20.2-48.2,31.1-72.2c3.5-7.8,7.7-15.3,10.8-22.5C392.2,1308.6,406.3,1284.7,420.1,1259.8z"
	/>
<path class="st0" d="M528.3,856.7c5.2-9.3,15.5-26.4,25.8-43.5c8.2-13.3,16.8-27.3,25.6-40.3c10.2-15.5,20.8-31.6,31-47.1
	c7.9-12.7,17.3-25.4,25.8-37.8c10.2-13.9,20-27.2,29.8-40.5c9.1-12,19.2-24.3,28.3-36.4c17.9-23.4,36.1-45.9,54.9-68
	c18.8-22.1,37.2-43.6,56.7-65.4c26.8-30.7,55.8-59.4,85.9-85.8c27.5-24.6,54.7-48.6,83.7-71.6c27.4-21.4,55.6-41.6,85.1-59.4
	c9.8-5.9,19.9-10.9,30.3-14.9c13.6-5.5,28-6.4,42.2-2.6c18.3,5.2,35.4,21.3,38,43.1c0.2,2.6,0.4,5.1,0,7.3c-1,9.2-3.7,18.3-7.5,26.8
	c-8.1,19.1-20,36.1-31.9,53.1c-19.7,28.1-38.1,57-53.5,87.5c-12.2,25-24.5,49.9-34.8,75.9c-8.2,20.7-15.2,42-20.6,63.5
	c-3.8,14.2-6.6,28.1-9.5,42c-2.3,10.1-6.9,19.8-11.1,28.8c-0.7,1.2-1.4,2.5-3.3,3c-11.4,5.9-22.5,12.7-34.5,16.7
	c-28.1,9.6-56.3,19.2-83.2,31.1c-28.9,12.5-57.2,26.8-84.7,42.5c-51.3,29.3-99.2,62.9-145.7,99.8c-21.8,17.2-42.9,34.8-63.2,53.7
	c-19.6,17.6-37.6,36.9-55.6,56.2c-6.4,7.1-13.7,14.4-20.7,21.1c-5.7,5.8-12,11.3-19.5,16c-3.9,2.7-7.8,3.8-12.3,4.6
	c-3.5,0.5-6.6-1.2-8.7-4.8c-2.1-3.6-3.2-7.5-2.7-11.3c-0.3-6.7,0.5-12.7,2.4-19c3.5-13.6,8.8-26.1,14.4-39.2
	C495.2,914.8,509.9,889.7,528.3,856.7z"/>
<path class="st0" d="M1213.5,589.9c-70.3-39-87.9-126.1-53.7-187.7c34.9-62.8,118.7-92.1,188-52.7s87,124.8,52.8,186.4
	C1366.7,598.5,1283.9,629,1213.5,589.9z"/>
</svg>
